<svg width="226" height="48" viewBox="0 0 226 48" fill="none" xmlns="http://www.w3.org/2000/svg">
<path d="M28.4475 10.2409C28.4475 15.9115 33.8666 20.4819 40.5904 20.4819C47.3142 20.4819 52.7334 15.9115 52.7334 10.2409C52.633 4.57033 47.3142 0 40.5904 0C33.8666 0 28.4475 4.57033 28.4475 10.2409Z" fill="#F4F4F4"/>
<path d="M1.15096 20.3128H0.548828V0.592651H23.9315V1.10047C11.8889 2.1161 2.25486 10.1565 1.15096 20.3128Z" fill="#F4F4F4"/>
<path d="M1.15096 24.2059H0.548828V43.9261H23.9315V43.4183C11.8889 42.4873 2.25486 34.3622 1.15096 24.2059Z" fill="#F4F4F4"/>
<path d="M51.3284 24.2059H51.9306V43.9261H28.5479V43.4183C40.5904 42.4873 50.2245 34.3622 51.3284 24.2059Z" fill="#F4F4F4"/>
<path d="M131.311 28.9456H128.1V42.4026H131.311V28.9456Z" fill="#F4F4F4"/>
<path d="M221.43 40.0326C221.43 40.0326 221.33 40.0326 221.129 40.0326C219.824 40.0326 219.021 39.948 218.319 39.4402C217.817 38.9324 217.717 38.086 217.717 36.7318V31.3151H221.43V28.9453H217.717V24.8828H214.505V36.8165C214.505 39.6094 215.108 40.9636 216.412 41.7253C217.616 42.4024 219.222 42.4871 221.129 42.4871C221.33 42.4871 221.43 42.4871 221.43 42.4871V40.0326Z" fill="#F4F4F4"/>
<path d="M126.193 40.0325H125.691C124.889 40.0325 124.487 39.9479 124.086 39.5247C123.584 38.9323 123.684 37.4935 123.684 35.8008V22.259H120.473V35.8008C120.473 38.4245 120.473 40.1172 121.477 41.2174C122.48 42.4024 123.785 42.487 125.892 42.487H126.193V40.0325Z" fill="#F4F4F4"/>
<path d="M85.6498 33.8542C85.6498 31.0612 84.7466 28.5222 83.0406 26.8294C80.9331 24.6289 78.2235 23.6133 75.0122 23.6133C71.8008 23.6133 68.9909 24.6289 66.8834 26.8294C65.1774 28.5222 64.3745 31.0612 64.3745 33.8542C64.3745 36.8165 65.3781 39.017 67.3852 40.7943C68.3887 41.7253 69.7937 42.5717 71.3994 43.2488C75.4136 44.9415 80.4313 47.2267 82.037 47.9884L83.8434 45.5339C82.8398 45.1108 80.0299 44.0105 79.2271 43.672C78.5246 43.4181 78.0228 43.2488 78.0228 43.2488C78.3239 43.2488 79.0264 42.9949 79.2271 42.9102C83.6427 41.5561 85.6498 38.2553 85.6498 33.8542ZM75.0122 26.5755C77.4207 26.5755 79.0264 27.3373 80.4313 28.9453C81.4349 30.0456 81.8363 31.823 81.8363 33.8542C81.8363 36.0547 81.3345 37.8321 80.1303 39.017C78.7253 40.4558 77.22 41.1329 75.0122 41.1329C72.9047 41.1329 71.299 40.5404 69.8941 39.017C68.6898 37.7475 68.0877 35.8855 68.0877 33.8542C68.0877 31.823 68.5894 30.1302 69.4926 29.03C70.998 27.3373 72.704 26.5755 75.0122 26.5755Z" fill="#F4F4F4"/>
<path d="M201.76 40.9638V42.4026H204.871V28.9456H201.66V36.2242C201.56 37.7477 201.359 38.6787 200.556 39.2711C199.854 39.7789 198.85 40.2021 197.746 40.2021C196.642 40.2021 195.839 39.8636 195.338 39.2711C194.635 38.5094 194.635 37.2399 194.635 35.9703V29.0302H191.424V35.8857C191.424 38.0016 191.625 39.7789 192.728 41.0485C193.732 42.1487 195.237 42.7412 197.345 42.7412C199.151 42.6565 200.757 41.9795 201.76 40.9638Z" fill="#F4F4F4"/>
<path d="M166.034 30.3841V28.9453H162.923V42.4024H166.134V35.1237C166.134 33.6849 166.536 32.7539 167.238 32.0768C167.941 31.4844 168.944 31.1458 170.048 31.1458C171.152 31.1458 171.955 31.4844 172.457 32.0768C173.159 32.8386 173.159 34.1081 173.159 35.4623V42.4024H176.371V35.5469C176.371 33.431 176.17 31.6537 175.066 30.3841C174.062 29.2839 172.557 28.6914 170.45 28.6914C168.643 28.6914 167.038 29.3685 166.034 30.3841Z" fill="#F4F4F4"/>
<path d="M114.652 28.9452V30.384H114.552C113.649 29.453 112.244 28.6067 110.136 28.6067C108.129 28.6067 106.524 29.1991 105.219 30.2994C103.613 31.5689 102.911 33.5156 102.911 35.6315C102.911 37.7474 103.714 39.694 105.219 40.9635C106.524 42.0638 108.129 42.6562 110.136 42.6562C112.143 42.6562 113.649 41.8099 114.552 40.8789H114.652V42.3177H117.864V35.5468V28.776H114.652V28.9452ZM113.247 39.1015C112.445 39.8633 111.341 40.1172 110.237 40.1172C109.133 40.1172 108.129 39.7786 107.326 39.0169C106.524 38.2552 106.022 36.9856 106.022 35.7161C106.022 34.4466 106.423 33.177 107.326 32.4153C108.129 31.6536 109.133 31.315 110.237 31.315C111.341 31.315 112.445 31.6536 113.247 32.3307C114.251 33.2617 114.552 34.3619 114.552 35.7161C114.652 37.0703 114.351 38.1705 113.247 39.1015Z" fill="#F4F4F4"/>
<path d="M213.502 40.0325H213C212.197 40.0325 211.796 39.9479 211.394 39.5247C210.893 38.9323 210.993 37.4935 210.993 35.8008V22.259H207.782V35.8008C207.782 38.4245 207.782 40.1172 208.785 41.2174C209.789 42.4024 211.093 42.487 213.201 42.487H213.502V40.0325Z" fill="#F4F4F4"/>
<path d="M141.347 40.1172C139.942 40.1172 138.838 39.6941 138.035 39.017C137.132 38.1706 136.63 36.9011 136.63 35.6315C136.63 34.362 137.132 33.0925 138.035 32.2461C138.838 31.4844 139.841 31.1458 141.347 31.1458C142.551 31.1458 143.354 31.3997 144.558 32.2461L146.164 30.1302C144.759 29.1146 143.153 28.6914 141.246 28.6914C139.139 28.6914 137.333 29.1992 135.827 30.3841C134.322 31.6537 133.519 33.6003 133.519 35.7162C133.519 37.8321 134.322 39.6941 135.827 41.0482C137.333 42.3178 139.139 42.7409 141.246 42.7409C143.153 42.7409 144.658 42.3178 146.164 41.3021L144.558 39.1862C143.454 39.8633 142.551 40.1172 141.347 40.1172Z" fill="#F4F4F4"/>
<path d="M98.0938 40.9638V42.4026H101.205V28.9456H97.8931V36.2242C97.8931 37.663 97.4917 38.594 96.7892 39.2711C96.0867 39.8636 95.0831 40.2021 93.9792 40.2021C92.8753 40.2021 92.0725 39.8636 91.5707 39.2711C90.8682 38.5094 90.8682 37.2399 90.8682 35.8857V28.9456H87.6569V35.8011C87.6569 37.9169 87.8576 39.6943 88.9615 40.9638C89.965 42.0641 91.4704 42.6566 93.5778 42.6566C95.4846 42.6566 97.0902 41.9795 98.0938 40.9638Z" fill="#F4F4F4"/>
<path d="M183.897 36.9012C185.904 37.4936 186.808 37.9168 186.808 38.8478C186.808 39.6941 186.005 40.3712 184.098 40.3712C182.492 40.3712 181.087 39.7788 179.783 38.7631L178.177 40.6251C179.883 41.9793 181.89 42.6564 183.998 42.6564C188.112 42.6564 189.818 40.879 189.818 38.6785C189.818 36.1394 187.711 35.2931 184.901 34.4467C182.994 33.8543 181.689 33.5157 181.689 32.5847C181.689 31.7384 182.693 31.1459 184.299 31.1459C185.603 31.1459 186.707 31.3998 187.911 32.2462L189.517 30.3842C187.911 29.1993 186.205 28.7761 184.198 28.7761C181.589 28.7761 178.578 29.8764 178.578 32.754C178.578 35.3777 181.288 36.1394 183.897 36.9012Z" fill="#F4F4F4"/>
<path d="M225.444 25.2216C225.444 26.1526 224.541 26.9989 223.337 26.9989C222.233 26.9989 221.229 26.2372 221.229 25.2216C221.229 24.2906 222.132 23.4442 223.337 23.4442C224.541 23.4442 225.444 24.2906 225.444 25.2216ZM225.143 25.2216C225.143 24.3752 224.441 23.6981 223.437 23.6981C222.434 23.6981 221.731 24.3752 221.731 25.2216C221.731 26.0679 222.434 26.745 223.437 26.745C224.34 26.745 225.143 26.0679 225.143 25.2216ZM223.638 24.2906C224.14 24.2906 224.34 24.4598 224.34 24.7984C224.34 25.0523 224.24 25.1369 224.039 25.2216L224.34 25.9833H223.939L223.638 25.2216H222.935V25.9833H222.634V24.2059H223.638V24.2906ZM223.537 25.1369C223.839 25.1369 223.939 25.0523 223.939 24.883C223.939 24.7137 223.839 24.6291 223.537 24.6291H222.935V25.1369H223.537Z" fill="#F4F4F4"/>
<path d="M158.909 30.2995C157.604 29.2839 155.698 28.6914 153.891 28.6914C152.085 28.6914 150.178 29.2839 148.873 30.2995C147.167 31.569 146.365 33.5156 146.365 35.7162C146.365 37.9167 147.268 39.8633 148.873 41.1329C150.178 42.1485 152.085 42.7409 153.891 42.7409C155.698 42.7409 157.604 42.1485 158.909 41.1329C160.615 39.8633 161.418 37.9167 161.418 35.7162C161.518 33.5156 160.615 31.569 158.909 30.2995ZM157.002 39.1016C156.199 39.8633 155.196 40.2865 153.891 40.2865C152.587 40.2865 151.583 39.948 150.78 39.1016C149.977 38.2552 149.475 36.9857 149.475 35.7162C149.475 34.4466 149.877 33.1771 150.78 32.3307C151.583 31.569 152.587 31.1458 153.891 31.1458C155.196 31.1458 156.199 31.4844 157.002 32.3307C157.805 33.1771 158.307 34.4466 158.307 35.7162C158.307 36.9857 157.805 38.1706 157.002 39.1016Z" fill="#F4F4F4"/>
<path d="M121.878 17.4349V18.8737H124.989V5.41663H121.778V12.6953C121.778 14.1341 121.376 15.0651 120.674 15.7422C119.971 16.3346 118.968 16.6732 117.864 16.6732C116.76 16.6732 115.957 16.3346 115.455 15.7422C114.753 14.9805 114.753 13.7109 114.753 12.3568V5.41663H111.541V12.2721C111.541 14.388 111.742 16.1654 112.846 17.4349C113.85 18.5352 115.355 19.1276 117.462 19.1276C119.269 19.1276 120.874 18.4505 121.878 17.4349Z" fill="#F4F4F4"/>
<path d="M147.77 11.0028C147.77 10.1564 148.372 9.1408 148.873 8.63299C149.476 8.04054 150.379 7.61736 151.583 7.61736C152.888 7.61736 153.791 8.04054 154.393 8.71763C154.895 9.22544 155.296 10.1564 155.296 11.0028H147.77ZM156.4 6.94027C155.196 5.84001 153.49 5.24756 151.683 5.24756C149.877 5.24756 148.372 5.75537 147.067 6.771C145.461 8.04054 144.659 10.0718 144.659 12.1877C144.659 14.3036 145.461 16.2502 146.967 17.5197C148.271 18.62 149.977 19.1278 151.984 19.1278C153.891 19.1278 156.199 18.5354 157.805 17.0966L155.999 15.4039C154.995 16.1656 153.59 16.6734 152.085 16.6734C150.881 16.6734 149.777 16.3348 149.074 15.6578C148.372 15.0653 147.97 14.1343 147.87 13.1187H158.407C158.507 10.5796 158.006 8.46372 156.4 6.94027Z" fill="#F4F4F4"/>
<path d="M107.126 6.77092C105.821 5.75529 103.914 5.16284 102.108 5.16284C100.201 5.16284 98.3948 5.75529 97.0902 6.77092C95.3842 8.04046 94.5814 9.98708 94.5814 12.1876C94.5814 14.3035 95.4846 16.3348 97.0902 17.6043C98.3948 18.6199 100.302 19.2124 102.108 19.2124C104.015 19.2124 105.821 18.6199 107.126 17.6043C108.832 16.3348 109.635 14.3881 109.635 12.1876C109.635 9.98708 108.731 8.04046 107.126 6.77092ZM105.119 15.573C104.316 16.3348 103.312 16.7579 102.008 16.7579C100.703 16.7579 99.6995 16.4194 98.8966 15.573C98.0938 14.7267 97.592 13.4571 97.592 12.1876C97.592 10.9181 97.9934 9.64854 98.8966 8.80218C99.6995 8.04046 100.703 7.61728 102.008 7.61728C103.312 7.61728 104.316 7.95582 105.119 8.80218C105.921 9.64854 106.423 10.9181 106.423 12.1876C106.423 13.4571 106.022 14.642 105.119 15.573Z" fill="#F4F4F4"/>
<path d="M131.412 24.8828V17.4348C132.315 18.3658 133.72 19.2122 135.827 19.2122C137.834 19.2122 139.44 18.6197 140.745 17.5195C142.35 16.2499 143.053 14.3033 143.053 12.272C143.053 10.1561 142.25 8.29416 140.745 7.02462C139.44 5.92436 137.834 5.33191 135.827 5.33191C133.82 5.33191 132.315 6.17827 131.412 7.10926H131.311V5.50118H128.2V12.1874V24.8828H131.412ZM132.616 8.80198C133.419 8.04025 134.523 7.78635 135.627 7.78635C136.73 7.78635 137.734 8.12489 138.537 8.88661C139.34 9.64833 139.841 10.9179 139.841 12.1874C139.841 13.4569 139.44 14.7265 138.537 15.4882C137.734 16.2499 136.73 16.5885 135.627 16.5885C134.523 16.5885 133.419 16.3346 132.616 15.5728C131.612 14.6418 131.311 13.5416 131.311 12.1874C131.211 10.7486 131.612 9.73297 132.616 8.80198Z" fill="#F4F4F4"/>
<path d="M78.926 16.1654C77.9224 16.6732 76.5175 16.8425 75.3132 16.8425C73.5068 16.8425 71.6001 16.3347 70.0948 14.8959C68.7901 13.711 68.188 12.1029 68.188 10.0717C68.188 7.87113 69.1916 5.9245 70.2955 4.82424C71.6001 3.5547 73.4065 2.96225 75.4136 2.96225C77.0192 2.96225 78.6249 3.47007 80.1303 4.31642L81.9366 1.86199C79.9295 0.59245 77.6214 0 75.3132 0C72.2022 0 69.2919 0.930994 67.2848 2.87762C65.4784 4.57033 64.2742 7.10941 64.2742 9.98702C64.2742 12.78 65.2777 15.3191 67.0841 16.9272C69.3923 19.043 72.3026 19.8894 75.1125 19.8894C78.1232 19.8894 80.9331 18.9584 82.1374 17.9428V9.90239H78.7253V16.1654H78.926Z" fill="#F4F4F4"/>
<path d="M95.2838 5.58602C94.5814 5.33211 93.8789 5.16284 93.076 5.16284C91.2696 5.16284 89.7643 5.92456 88.8611 6.85556H88.7608V5.50138H85.6498V18.8738H88.8611V11.7644C88.8611 10.1564 89.2625 9.14072 90.0654 8.54827C90.6675 8.04046 91.5707 7.78655 92.5743 7.78655C93.076 7.78655 93.4775 7.87119 93.8789 8.04046L95.2838 5.58602Z" fill="#F4F4F4"/>
</svg>
