<svg width="373" height="43" viewBox="0 0 373 43" fill="none" xmlns="http://www.w3.org/2000/svg">
<path fill-rule="evenodd" clip-rule="evenodd" d="M174.697 18.6241C181.205 20.5389 184.377 25.3227 184.377 29.9336C184.377 36.4299 178.269 41.7156 170.755 41.7387L144.08 41.7372V0.00154419L168.645 0C171.719 0.0252124 174.657 1.09667 176.821 2.9817C178.986 4.86673 180.202 7.41313 180.205 10.0679C180.209 11.7816 179.705 13.4675 178.74 14.965C177.776 16.4625 176.383 17.7217 174.695 18.6226L174.697 18.6241ZM155.15 33.9515H167.479C171.355 33.9515 173.383 31.4546 173.383 28.987C173.383 26.9997 171.55 24.2001 167.479 24.2001H155.15V33.9515ZM164.175 16.4145C167.018 16.4145 169.246 14.5198 169.246 12.1016C169.246 9.76374 166.922 7.78876 164.175 7.78876H155.15V16.4145H164.175ZM277.927 41.7473L266.381 24.2519C268.887 23.2159 271.003 21.5892 272.485 19.5596C273.967 17.5299 274.755 15.1799 274.757 12.7803C274.757 5.74049 268.124 0.0131853 259.972 0.0131853H235.279V41.7457H246.26V25.5475H255.001L265.691 41.7473H277.927ZM246.08 17.4916V8.08916H257.915L257.869 8.1046C261.472 8.27137 263.767 10.075 263.767 12.7989C263.767 15.4934 261.309 17.3804 257.642 17.4931H246.08V17.4916ZM190.432 41.7473V0.0131853H226.535V7.97644H201.71V16.3257H223.476V24.4666H201.71V33.3687H227.763V41.7473H190.432ZM138.939 41.7473L127.393 24.2519C129.899 23.2158 132.015 21.5891 133.496 19.5594C134.978 17.5298 135.766 15.1797 135.768 12.7803C135.768 5.74049 129.137 0.0131853 120.986 0.0131853H96.2896V41.7457H107.273V25.5475H116.015L126.703 41.7473H138.939ZM107.09 17.4916V8.08916H118.928L118.881 8.1046C122.484 8.27137 124.781 10.075 124.781 12.7989C124.781 15.4934 122.321 17.3804 118.654 17.4931H107.09V17.4916ZM67.0257 42.7757C80.2381 42.7757 88.128 36.2146 88.128 25.2263V0.0425244H76.8501V24.5746C76.8501 30.5166 73.2689 33.923 67.0257 33.923H67.0203C60.777 33.923 57.1977 30.5166 57.1977 24.5746V0.0425244H45.9162V25.2278C45.9162 36.2146 53.8061 42.7757 67.0203 42.7757H67.0257ZM31.1662 18.6327C37.6741 20.549 40.8458 25.3313 40.8458 29.9422C40.8458 36.4385 34.7384 41.7257 27.224 41.7473H0.548828V0.0100969H25.1178C28.1909 0.0349051 31.1285 1.10586 33.2927 2.99035C35.4569 4.87485 36.6728 7.42069 36.6765 10.075C36.6805 11.7889 36.1762 13.4751 35.2116 14.9729C34.247 16.4707 32.8543 17.7302 31.1662 18.6312V18.6327ZM11.6194 33.9601H23.9486C27.8247 33.9601 29.8521 31.4632 29.8521 28.9956C29.8521 27.0082 28.0213 24.2087 23.9486 24.2087H11.6194V33.9601ZM20.6481 16.423C23.4873 16.423 25.715 14.5283 25.715 12.1102C25.715 9.7723 23.3907 7.79731 20.6464 7.79731H11.6194V16.423H20.6481ZM314.169 24.2512L325.715 41.7465H313.481L302.793 25.5467H294.05V41.745H283.067V0.0124512H307.761C315.912 0.0124512 322.544 5.73975 322.544 12.7796C322.541 15.179 321.754 17.529 320.272 19.5587C318.791 21.5884 316.675 23.215 314.169 24.2512ZM293.866 8.08842V17.4908V17.4924H305.43C309.097 17.3797 311.557 15.4927 311.557 12.7981C311.557 10.0742 309.26 8.27064 305.657 8.10387L305.704 8.08842H293.866ZM341.761 24.7407V41.7465H353.658V24.7407L372.874 0.0124512H358.791L347.71 14.3608L336.675 0.0124512H322.592L341.761 24.7407Z" fill="#F4F4F4"/>
</svg>
