<svg width="229" height="45" viewBox="0 0 229 45" fill="none" xmlns="http://www.w3.org/2000/svg">
<path d="M83.4221 31.5923C83.4221 24.9083 79.5911 21.252 65.7203 19.3095L65.7203 24.0513C75.2978 25.4796 77.7417 27.6504 77.6757 31.7637C77.6095 35.7057 74.307 39.7046 63.8048 39.7046C54.9539 39.7046 49.8679 35.6484 48.8111 29.9926H42.4041C43.1967 36.9625 49.9339 44.5607 63.6066 44.5607C77.5435 44.5607 83.4221 37.8194 83.4221 31.5923Z" fill="#F4F4F4"/>
<path d="M43.9231 12.1114C43.9231 20.6235 52.8401 23.1372 60.2379 23.7085L60.2379 18.9096C54.1611 18.2241 49.6696 16.339 49.6696 12.1684C49.6696 8.05499 54.3592 4.85588 62.0873 4.85588C69.0228 4.85588 73.6463 7.82661 74.7692 12.4541H81.3745C80.7801 7.48395 75.2318 0 62.0874 0C52.1796 0 43.9231 4.68446 43.9231 12.1114Z" fill="#F4F4F4"/>
<path d="M0 0.857067V5.82716H36.1964V0.857067H0Z" fill="#F4F4F4"/>
<path d="M36.1964 19.8239H0V24.737H36.1964V19.8239Z" fill="#F4F4F4"/>
<path d="M36.1964 38.7335H0V43.7039H36.1964V38.7335Z" fill="#F4F4F4"/>
<path d="M96.1696 0.857067V43.7038H90.4231V0.857067H96.1696Z" fill="#F4F4F4"/>
<path d="M101.652 5.82716V0.857067H111.361C120.675 0.857067 126.619 5.88437 126.619 12.797C126.619 19.7097 120.344 24.737 111.361 24.737H101.652V19.7666H111.361C117.504 19.7666 120.873 16.9103 120.873 12.797C120.873 8.68363 117.504 5.82711 111.361 5.82711L101.652 5.82716Z" fill="#F4F4F4"/>
<path d="M139.3 0.857067H133.554V43.7038H139.3V0.857067Z" fill="#F4F4F4"/>
<path d="M171.204 12.797C171.204 5.88437 165.259 0.857067 155.945 0.857067H144.783V5.82711H155.747C161.89 5.82711 165.127 8.96928 165.127 12.797C165.127 16.6817 161.89 19.7666 155.747 19.7666H144.783V24.737H155.945C164.929 24.737 171.204 19.7097 171.204 12.797Z" fill="#F4F4F4"/>
<path d="M154.228 29.0216L165.457 43.7038H172.657L161.098 29.0216H154.228Z" fill="#F4F4F4"/>
<path d="M179.459 0.857067H185.205V43.7038H179.459V0.857067Z" fill="#F4F4F4"/>
<path d="M191.347 0.857067V5.82716H228.864V0.857067H191.347Z" fill="#F4F4F4"/>
<path d="M213.012 43.7038V10.4546H207.265V43.7038H213.012Z" fill="#F4F4F4"/>
</svg>
