<svg width="414" height="69" viewBox="0 0 414 69" fill="none" xmlns="http://www.w3.org/2000/svg">
<path d="M90.0186 19V33.1279C90.0186 37.5233 90.3253 39.25 91.5523 41.1337C93.6612 44.4695 97.9941 46 105.395 46C112.066 46 116.284 44.7442 118.547 42.0363C120.31 39.9564 120.732 38.1904 120.732 32.8532V19H110.954V32.4215C110.954 37.3663 109.382 39.3285 105.395 39.3285C101.407 39.3285 99.7963 37.3663 99.7963 32.4215V19H90.0186Z" fill="black"/>
<path d="M125.447 45.1759H135.225V27.1235L141.513 45.1759H149.566L155.739 27.1235V45.1759H165.517V19H149.566L145.616 31.0087L141.513 19H125.447V45.1759Z" fill="black"/>
<path d="M170.532 45.1759H192.426C196.912 45.1759 199.021 44.8227 200.747 43.7238C202.587 42.5465 203.737 40.0741 203.737 37.2878C203.737 35.6788 203.316 34.2267 202.549 33.0102C201.859 31.9898 201.245 31.5189 199.443 30.6948C201.437 29.3605 202.165 28.0654 202.165 25.7892C202.165 23.1206 200.785 20.8445 198.599 19.9419C196.874 19.2355 194.88 19 190.739 19H170.532V45.1759ZM180.309 38.8183V35.1294H188.515C191.582 35.1686 191.736 35.1686 192.234 35.3648C192.924 35.6395 193.27 36.189 193.27 36.9346C193.27 37.6017 192.963 38.1904 192.464 38.4651C191.928 38.7791 191.889 38.7791 188.515 38.8183H180.309ZM180.309 28.7326V25.3183H187.441C190.931 25.3183 191.736 25.6323 191.736 27.0058C191.736 27.8299 191.276 28.4186 190.509 28.5756C189.895 28.6933 189.435 28.7326 187.403 28.7326H180.309Z" fill="black"/>
<path d="M207.64 45.1759H217.418V35.7965H222.978C227.119 35.7965 227.464 36.189 227.694 41.7224C227.809 43.8023 227.847 44.1163 228.001 45.1759H238.238C237.663 44.1948 237.625 43.8808 237.548 41.8794C237.318 35.1686 236.896 34.3837 233.062 33.2456C234.941 32.814 235.823 32.4215 236.628 31.5189C237.548 30.4593 238.085 28.6541 238.085 26.5349C238.085 23.3561 236.743 20.8445 234.519 19.9026C232.794 19.157 231.528 19 226.582 19H207.64V45.1759ZM217.418 30.2631V25.1221H223.974C226.735 25.1221 227.617 25.75 227.617 27.6337C227.617 28.6148 227.234 29.3997 226.62 29.8314C226.16 30.1454 225.47 30.2631 223.898 30.2631H217.418Z" fill="black"/>
<path d="M241.865 45.1759H272.003V38.5044H251.643V35.2471H267.517V28.5756H251.643V25.6715H270.815V19H241.865V45.1759Z" fill="black"/>
<path d="M275.903 45.1759H303.971V38.5044H285.681V19H275.903V45.1759Z" fill="black"/>
<path d="M307.132 45.1759H335.2V38.5044H316.91V19H307.132V45.1759Z" fill="black"/>
<path d="M335.601 45.1759H345.839L346.797 42.782H357.227L358.301 45.1759H368.999L358.761 19H345.839L335.601 45.1759ZM348.561 36.1105L352.012 26.4956L355.31 36.1105H348.561Z" fill="black"/>
<path d="M378.432 45.1759H390.549L395.495 38.8576L400.25 45.1759H413.019L402.09 31.4797L412.022 19H399.79L396.07 24.0233L392.198 19H379.544L389.36 31.2049L378.432 45.1759Z" fill="black"/>
<path d="M32.9373 34.443L32.6366 0.126282C33.4248 3.70418 59.8701 18.6173 62.6599 16.9684C62.608 16.9995 62.5562 17.0409 62.5043 17.0928L32.9373 34.443Z" fill="url(#paint0_linear_807_967)"/>
<path d="M3.18351 52.0117C5.98361 50.3627 5.74508 19.8728 2.98647 17.5705L32.9371 34.454L3.26648 51.9598C3.23536 51.9806 3.20425 51.991 3.18351 52.0117Z" fill="url(#paint1_linear_807_967)"/>
<path d="M3.26759 51.959L32.9383 34.4429L33.239 68.853C33.2286 68.9048 33.2286 68.9567 33.2286 68.9982C33.1975 65.7417 6.524 50.6316 3.26759 51.959Z" fill="#2CBFA6"/>
<path fill-rule="evenodd" clip-rule="evenodd" d="M33.1133 34.1304L33.4169 68.87L33.4133 68.8882C33.4069 68.9202 33.4064 68.9549 33.4064 68.9983L33.0477 69C33.0463 68.8509 32.9653 68.6377 32.7732 68.3569C32.5846 68.0812 32.3039 67.7619 31.9389 67.405C31.2093 66.6916 30.1601 65.8454 28.8851 64.9206C26.3364 63.072 22.9036 60.9231 19.3675 58.9157C15.8314 56.9084 12.1969 55.0456 9.24558 53.7682C7.76935 53.1292 6.4685 52.6386 5.43853 52.3493C4.92334 52.2045 4.48065 52.1115 4.12038 52.0744C3.75517 52.0368 3.49588 52.0591 3.33369 52.1252L3.1748 51.8047L33.1133 34.1304ZM4.04507 51.7075C4.08189 51.7103 4.11925 51.7137 4.15713 51.7176C4.54537 51.7575 5.00968 51.8562 5.53555 52.0039C6.58771 52.2995 7.90523 52.7971 9.38806 53.439C12.3548 54.7231 16.0013 56.5924 19.5445 58.6038C23.0877 60.6151 26.5327 62.7713 29.0957 64.6302C30.3766 65.5593 31.4419 66.4174 32.1897 67.1485C32.5529 67.5036 32.8454 67.8328 33.0517 68.129L32.76 34.7555L4.04507 51.7075Z" fill="white"/>
<path d="M32.9391 34.4432L2.97807 17.57C2.95733 17.5493 2.93659 17.5389 2.91585 17.5286H2.92622C6.02707 18.9493 32.5761 3.28954 32.6176 0.00201416C32.6176 0.0434971 32.628 0.0953507 32.6384 0.136834L32.9391 34.4432Z" fill="#2CBFA6"/>
<path fill-rule="evenodd" clip-rule="evenodd" d="M3.72661 17.7864L32.7563 34.1351L32.4645 0.849053C32.4629 0.851454 32.4613 0.853856 32.4596 0.856259C32.2532 1.16451 31.9556 1.50975 31.5835 1.88398C30.8387 2.6329 29.7783 3.51468 28.5037 4.47097C25.9535 6.38443 22.5281 8.6094 19.0095 10.6856C15.491 12.7618 11.8743 14.6923 8.94079 16.0155C7.47465 16.6768 6.17442 17.1886 5.14008 17.4906C4.62316 17.6416 4.16748 17.7417 3.78774 17.7806C3.76721 17.7827 3.74683 17.7847 3.72661 17.7864ZM32.1616 0.656682C32.3536 0.369981 32.4356 0.152216 32.4375 0L32.7962 0.00226294C32.7962 0.0205849 32.8018 0.0546264 32.8116 0.093583L32.8167 0.114229L33.1204 34.7518L2.86784 17.7145L2.85111 17.6977C2.85109 17.6977 2.85112 17.6978 2.85111 17.6977C2.85044 17.6973 2.84906 17.6965 2.84646 17.6951C2.84355 17.6936 2.84034 17.692 2.83484 17.6892L2.1553 17.3494H2.96456L3.00013 17.3657C3.1496 17.4342 3.39575 17.4603 3.7511 17.4238C4.10096 17.3879 4.53366 17.294 5.03954 17.1463C6.05079 16.851 7.33376 16.3468 8.7933 15.6885C11.7112 14.3723 15.3158 12.4487 18.8272 10.3767C22.3388 8.30461 25.7522 6.08701 28.2885 4.18404C29.5572 3.23211 30.602 2.36221 31.3291 1.63104C31.6929 1.26521 31.973 0.938305 32.1616 0.656682Z" fill="white"/>
<path fill-rule="evenodd" clip-rule="evenodd" d="M31.61 65.8741C48.9686 65.8741 63.0406 51.8021 63.0406 34.4435C63.0406 17.0848 48.9686 3.01285 31.61 3.01285C14.2513 3.01285 0.179353 17.0848 0.179353 34.4435C0.179353 51.8021 14.2513 65.8741 31.61 65.8741ZM31.61 66.0534C49.0677 66.0534 63.2199 51.9012 63.2199 34.4435C63.2199 16.9858 49.0677 2.8335 31.61 2.8335C14.1523 2.8335 0 16.9858 0 34.4435C0 51.9012 14.1523 66.0534 31.61 66.0534Z" fill="#F1F1F1" fill-opacity="0.4"/>
<path fill-rule="evenodd" clip-rule="evenodd" d="M31.6094 63.6084C47.7165 63.6084 60.7739 50.551 60.7739 34.4439C60.7739 18.3368 47.7165 5.27945 31.6094 5.27945C15.5024 5.27945 2.44498 18.3368 2.44498 34.4439C2.44498 50.551 15.5024 63.6084 31.6094 63.6084ZM31.6094 63.7877C47.8156 63.7877 60.9533 50.6501 60.9533 34.4439C60.9533 18.2378 47.8156 5.1001 31.6094 5.1001C15.4033 5.1001 2.26562 18.2378 2.26562 34.4439C2.26562 50.6501 15.4033 63.7877 31.6094 63.7877Z" fill="#F1F1F1" fill-opacity="0.4"/>
<path d="M33.2402 68.8531L32.9395 34.4431L62.8694 51.4199C62.9005 51.4407 62.9316 51.4614 62.9524 51.4822C60.1419 49.8851 33.9558 65.2649 33.2402 68.8531Z" fill="url(#paint2_linear_807_967)"/>
<path d="M62.8694 51.4201L32.9395 34.4433L62.5064 17.093C59.8722 19.7894 60.1523 49.263 62.8694 51.4201Z" fill="#1F2227"/>
<path fill-rule="evenodd" clip-rule="evenodd" d="M63.5686 16.2612L62.6332 17.2187C62.4937 17.3615 62.351 17.6081 62.2122 17.9646C62.0746 18.3177 61.9462 18.7642 61.8278 19.2932C61.591 20.351 61.3973 21.7237 61.2468 23.3081C60.9459 26.4761 60.8189 30.4739 60.859 34.4573C60.8992 38.4408 61.1064 42.4047 61.4726 45.505C61.6558 47.0557 61.8781 48.3855 62.1378 49.3919C62.2677 49.8953 62.4057 50.3132 62.5507 50.6355C62.6975 50.9621 62.8435 51.172 62.9794 51.28L62.7794 51.5765L32.5791 34.4462L63.5686 16.2612ZM33.2968 34.4409L62.2651 50.8724C62.2511 50.843 62.2372 50.8131 62.2235 50.7827C62.0672 50.4349 61.9232 49.9958 61.7905 49.4815C61.5251 48.4527 61.3004 47.105 61.1164 45.547C60.7482 42.43 60.5406 38.4525 60.5003 34.4609C60.4601 30.4693 60.5872 26.4583 60.8897 23.2742C61.0409 21.6826 61.2363 20.2934 61.4778 19.2148C61.5985 18.6757 61.7315 18.2103 61.8779 17.8344C61.9076 17.7584 61.938 17.6854 61.9692 17.6157L33.2968 34.4409Z" fill="white"/>
<path d="M32.9373 34.443L32.6366 0.126282C33.4248 3.70418 59.8701 18.6173 62.6599 16.9684C62.608 16.9995 62.5562 17.0409 62.5043 17.0928L32.9373 34.443Z" fill="url(#paint3_linear_807_967)"/>
<path d="M3.18351 52.0117C5.98361 50.3627 5.74508 19.8728 2.98647 17.5705L32.9371 34.454L3.26648 51.9598C3.23536 51.9806 3.20425 51.991 3.18351 52.0117Z" fill="url(#paint4_linear_807_967)"/>
<path d="M3.26759 51.959L32.9383 34.4429L33.239 68.853C33.2286 68.9048 33.2286 68.9567 33.2286 68.9982C33.1975 65.7417 6.524 50.6316 3.26759 51.959Z" fill="#1F2227"/>
<path fill-rule="evenodd" clip-rule="evenodd" d="M33.1133 34.1304L33.4169 68.87L33.4133 68.8882C33.4069 68.9202 33.4064 68.9549 33.4064 68.9983L33.0477 69C33.0463 68.8509 32.9653 68.6377 32.7732 68.3569C32.5846 68.0812 32.3039 67.7619 31.9389 67.405C31.2093 66.6916 30.1601 65.8454 28.8851 64.9206C26.3364 63.072 22.9036 60.9231 19.3675 58.9157C15.8314 56.9084 12.1969 55.0456 9.24558 53.7682C7.76935 53.1292 6.4685 52.6386 5.43853 52.3493C4.92334 52.2045 4.48065 52.1115 4.12038 52.0744C3.75517 52.0368 3.49588 52.0591 3.33369 52.1252L3.1748 51.8047L33.1133 34.1304ZM4.04507 51.7075C4.08189 51.7103 4.11925 51.7137 4.15713 51.7176C4.54537 51.7575 5.00968 51.8562 5.53555 52.0039C6.58771 52.2995 7.90523 52.7971 9.38806 53.439C12.3548 54.7231 16.0013 56.5924 19.5445 58.6038C23.0877 60.6151 26.5327 62.7713 29.0957 64.6302C30.3766 65.5593 31.4419 66.4174 32.1897 67.1485C32.5529 67.5036 32.8454 67.8328 33.0517 68.129L32.76 34.7555L4.04507 51.7075Z" fill="white"/>
<path d="M32.9391 34.4432L2.97807 17.57C2.95733 17.5493 2.93659 17.5389 2.91585 17.5286H2.92622C6.02707 18.9493 32.5761 3.28954 32.6176 0.00201416C32.6176 0.0434971 32.628 0.0953507 32.6384 0.136834L32.9391 34.4432Z" fill="#1F2227"/>
<path fill-rule="evenodd" clip-rule="evenodd" d="M3.72661 17.7864L32.7563 34.1351L32.4645 0.849053C32.4629 0.851454 32.4613 0.853856 32.4596 0.856259C32.2532 1.16451 31.9556 1.50975 31.5835 1.88398C30.8387 2.6329 29.7783 3.51468 28.5037 4.47097C25.9535 6.38443 22.5281 8.6094 19.0095 10.6856C15.491 12.7618 11.8743 14.6923 8.94079 16.0155C7.47465 16.6768 6.17442 17.1886 5.14008 17.4906C4.62316 17.6416 4.16748 17.7417 3.78774 17.7806C3.76721 17.7827 3.74683 17.7847 3.72661 17.7864ZM32.1616 0.656682C32.3536 0.369981 32.4356 0.152216 32.4375 0L32.7962 0.00226294C32.7962 0.0205849 32.8018 0.0546264 32.8116 0.093583L32.8167 0.114229L33.1204 34.7518L2.86784 17.7145L2.85111 17.6977C2.85109 17.6977 2.85112 17.6978 2.85111 17.6977C2.85044 17.6973 2.84906 17.6965 2.84646 17.6951C2.84355 17.6936 2.84034 17.692 2.83484 17.6892L2.1553 17.3494H2.96456L3.00013 17.3657C3.1496 17.4342 3.39575 17.4603 3.7511 17.4238C4.10096 17.3879 4.53366 17.294 5.03954 17.1463C6.05079 16.851 7.33376 16.3468 8.7933 15.6885C11.7112 14.3723 15.3158 12.4487 18.8272 10.3767C22.3388 8.30461 25.7522 6.08701 28.2885 4.18404C29.5572 3.23211 30.602 2.36221 31.3291 1.63104C31.6929 1.26521 31.973 0.938305 32.1616 0.656682Z" fill="white"/>
<defs>
<linearGradient id="paint0_linear_807_967" x1="63.6377" y1="41.7015" x2="23.1093" y2="0.787815" gradientUnits="userSpaceOnUse">
<stop offset="0.0104072" stop-color="#FFFDF8"/>
<stop offset="0.277" stop-color="#FAFAF7"/>
<stop offset="0.5893" stop-color="#ECF1F3"/>
<stop offset="0.9235" stop-color="#D4E3ED"/>
<stop offset="1" stop-color="#CEDFEB"/>
</linearGradient>
<linearGradient id="paint1_linear_807_967" x1="36.533" y1="36.5655" x2="-0.585686" y2="34.5931" gradientUnits="userSpaceOnUse">
<stop offset="0.3682" stop-color="#FFFDF8"/>
<stop offset="0.5651" stop-color="#F4F6F5"/>
<stop offset="0.9105" stop-color="#D7E4ED"/>
<stop offset="1" stop-color="#CEDFEB"/>
</linearGradient>
<linearGradient id="paint2_linear_807_967" x1="51.7786" y1="34.9453" x2="38.2372" y2="63.3019" gradientUnits="userSpaceOnUse">
<stop offset="0.0170306" stop-color="#FFFDF8"/>
<stop offset="0.2891" stop-color="#F7F8F6"/>
<stop offset="0.7128" stop-color="#E1EBF0"/>
<stop offset="1" stop-color="#CEDFEB"/>
</linearGradient>
<linearGradient id="paint3_linear_807_967" x1="63.6377" y1="41.7015" x2="23.1093" y2="0.787812" gradientUnits="userSpaceOnUse">
<stop offset="0.0104072" stop-color="#FFFDF8"/>
<stop offset="0.277" stop-color="#FAFAF7"/>
<stop offset="0.5893" stop-color="#ECF1F3"/>
<stop offset="0.9235" stop-color="#D4E3ED"/>
<stop offset="1" stop-color="#CEDFEB"/>
</linearGradient>
<linearGradient id="paint4_linear_807_967" x1="36.533" y1="36.5655" x2="-0.585686" y2="34.5931" gradientUnits="userSpaceOnUse">
<stop offset="0.3682" stop-color="#FFFDF8"/>
<stop offset="0.5651" stop-color="#F4F6F5"/>
<stop offset="0.9105" stop-color="#D7E4ED"/>
<stop offset="1" stop-color="#CEDFEB"/>
</linearGradient>
</defs>
</svg>
