<svg width="750" height="1079" viewBox="0 0 750 1079" fill="none" xmlns="http://www.w3.org/2000/svg">
<g filter="url(#filter0_d_802_891)">
<path d="M91.551 650.953C82.7613 644.04 78.103 628.952 81.1465 617.254L165.716 292.196C168.76 280.498 178.352 276.619 187.142 283.532L593.297 602.98C602.087 609.893 606.745 624.98 603.702 636.678L519.132 961.737C516.089 973.435 506.496 977.313 497.706 970.4L91.551 650.953Z" fill="#F2F2F2"/>
<path d="M91.551 650.953C82.7613 644.04 78.103 628.952 81.1465 617.254L165.716 292.196C168.76 280.498 178.352 276.619 187.142 283.532L593.297 602.98C602.087 609.893 606.745 624.98 603.702 636.678L519.132 961.737C516.089 973.435 506.496 977.313 497.706 970.4L91.551 650.953Z" fill="url(#paint0_radial_802_891)"/>
<path d="M476.291 600.256C481.769 579.199 499.036 572.217 514.857 584.661C530.679 597.105 539.064 624.262 533.586 645.319C528.107 666.375 510.841 673.357 495.019 660.913C479.198 648.469 470.813 621.312 476.291 600.256Z" fill="#3A3A3A"/>
<path d="M510.88 627.46C516.358 606.404 533.625 599.422 549.446 611.866C565.268 624.31 573.653 651.467 568.175 672.523C562.696 693.58 545.43 700.562 529.608 688.118C513.787 675.674 505.402 648.517 510.88 627.46Z" fill="#F2F2F2"/>
<path d="M187.406 444.145C188.826 438.686 193.303 436.876 197.405 440.103L240.694 474.15C244.796 477.376 246.97 484.417 245.549 489.876L236.291 525.46C234.871 530.919 230.395 532.73 226.293 529.503L183.003 495.456C178.902 492.229 176.728 485.189 178.148 479.73L187.406 444.145Z" fill="url(#paint1_linear_802_891)"/>
<g filter="url(#filter1_i_802_891)">
<rect width="73.9727" height="57.1958" rx="9.01345" transform="matrix(0.786012 0.618211 -0.251786 0.967783 189.668 434.627)" fill="url(#paint2_linear_802_891)"/>
</g>
<path d="M184.617 453.732L204.389 469.283C206.972 465.151 213.235 457.376 217.622 459.334C218.948 461.226 221.816 466.535 222.676 472.64M180.001 471.476L199.772 487.027C197.486 495.814 201.706 506.869 204.102 511.298C209.608 513.05 216.102 505.751 218.66 501.883L238.211 517.26M241.728 503.74L222.178 488.364C221.868 485.462 221.955 479.401 224.779 478.365" stroke="url(#paint3_linear_802_891)" stroke-width="0.772581"/>
<path d="M259.836 520.604C260.102 522.855 260.005 527.813 257.485 529.641M265.349 521.028C265.712 524.545 265.412 532.576 261.308 536.561M270.369 520.893C270.805 525.603 270.278 536.573 264.675 542.781M275.523 521.715C276.177 527.39 275.675 540.784 268.433 548.968" stroke="#000814" stroke-width="2.8328" stroke-linecap="round" stroke-linejoin="round"/>
</g>
<g filter="url(#filter2_d_802_891)">
<path d="M156.109 425.847C147.319 418.934 142.661 403.846 145.704 392.148L230.274 67.0897C233.317 55.3917 242.91 51.5129 251.7 58.4262L657.855 377.874C666.645 384.787 671.303 399.874 668.26 411.572L583.69 736.631C580.646 748.329 571.054 752.207 562.264 745.294L156.109 425.847Z" fill="#000814"/>
<path d="M156.109 425.847C147.319 418.934 142.661 403.846 145.704 392.148L230.274 67.0897C233.317 55.3917 242.91 51.5129 251.7 58.4262L657.855 377.874C666.645 384.787 671.303 399.874 668.26 411.572L583.69 736.631C580.646 748.329 571.054 752.207 562.264 745.294L156.109 425.847Z" fill="url(#paint4_radial_802_891)"/>
<path d="M251.963 219.04C253.384 213.58 257.86 211.77 261.962 214.997L305.251 249.044C309.353 252.27 311.527 259.311 310.107 264.77L300.849 300.354C299.429 305.813 294.952 307.624 290.85 304.397L247.561 270.35C243.459 267.124 241.285 260.083 242.706 254.624L251.963 219.04Z" fill="url(#paint5_linear_802_891)"/>
<g filter="url(#filter3_i_802_891)">
<rect width="73.9727" height="57.1958" rx="9.01345" transform="matrix(0.786012 0.618211 -0.251786 0.967783 254.226 209.521)" fill="url(#paint6_linear_802_891)"/>
</g>
<path d="M249.175 228.627L268.946 244.177C271.529 240.045 277.792 232.271 282.179 234.229C283.506 236.12 286.373 241.429 287.233 247.534M244.558 246.371L264.33 261.921C262.044 270.709 266.264 281.764 268.66 286.193C274.165 287.944 280.659 280.645 283.218 276.777L302.769 292.154M306.286 278.635L286.735 263.258C286.425 260.357 286.512 254.295 289.336 253.259" stroke="url(#paint7_linear_802_891)" stroke-width="0.772581"/>
<path d="M324.394 295.498C324.66 297.748 324.563 302.707 322.042 304.535M329.907 295.922C330.27 299.439 329.97 307.47 325.866 311.454M334.927 295.787C335.363 300.496 334.835 311.467 329.232 317.674M340.081 296.609C340.735 302.283 340.232 315.678 332.991 323.862" stroke="#01C1E0" stroke-width="2.8328" stroke-linecap="round" stroke-linejoin="round"/>
</g>
<path d="M203.874 400.295L209.268 404.482C210.9 405.75 211.61 406.184 212.381 406.415C214.158 406.922 215.774 406.238 217.229 404.364C218.581 402.623 218.925 400.932 218.234 399.349C217.821 398.408 217.139 397.665 215.482 396.379L210.137 392.229L203.874 400.295ZM208.554 400.633L211.624 396.679L213.075 397.806C214.031 398.547 214.118 398.635 214.328 398.914C214.937 399.677 214.81 400.664 214.003 401.704C213.467 402.393 212.876 402.806 212.317 402.877C211.802 402.941 211.094 402.605 210.042 401.788L208.554 400.633Z" fill="white"/>
<path d="M215.291 409.159L218.06 411.309L222.764 405.25L219.995 403.1L215.291 409.159ZM220.436 402.532L223.205 404.682L224.323 403.243L221.553 401.093L220.436 402.532Z" fill="white"/>
<path d="M232.957 413.164L230.188 411.014L229.681 411.667C229.508 410.642 228.907 409.768 227.698 408.829C225.352 407.008 223.073 407.022 221.646 408.86C221.017 409.67 220.759 410.652 220.966 411.433C221.259 412.455 222.209 413.677 223.551 414.719C224.591 415.527 225.412 415.893 226.348 415.96C225.887 416.455 225.605 416.643 225.252 416.698C224.76 416.782 224.152 416.542 223.462 416.007C222.882 415.556 222.715 415.272 222.708 414.782L219.419 412.228C218.605 413.825 219.349 415.314 222.022 417.389C223.098 418.224 224.292 418.958 225.122 419.311C226.032 419.688 226.643 419.775 227.252 419.589C227.926 419.395 228.441 418.981 229.211 417.989L232.957 413.164ZM227.169 411.558C228.148 412.318 228.461 413.239 227.963 413.88C227.456 414.533 226.465 414.462 225.485 413.701C224.457 412.903 224.148 412.004 224.674 411.326C225.181 410.673 226.141 410.76 227.169 411.558Z" fill="white"/>
<path d="M229.557 420.235L232.326 422.385L237.03 416.326L234.261 414.176L229.557 420.235ZM234.702 413.608L237.471 415.758L238.588 414.319L235.819 412.169L234.702 413.608Z" fill="white"/>
<path d="M238.905 424.993L238.712 424.842C238.047 424.326 238.004 424.157 238.436 423.601L240.163 421.375L241.131 422.127L242.398 420.494L241.431 419.743L242.989 417.736L240.22 415.585L238.661 417.593L237.682 416.832L236.414 418.465L237.394 419.225L235.648 421.475C234.727 422.66 234.702 422.718 234.622 423.12C234.5 423.801 234.877 424.365 236.038 425.266L237.694 426.553L238.905 424.993Z" fill="white"/>
<path d="M245.337 425.47C245.747 425.342 246.228 425.522 246.953 426.085C247.8 426.742 248.214 427.432 247.97 427.747C247.801 427.964 247.582 427.872 246.463 427.042C244.778 425.792 243.215 424.908 242.113 424.556C241.205 424.277 240.435 424.494 239.91 425.171C238.886 426.49 239.567 428.259 241.72 429.93C242.953 430.888 243.889 431.304 245.203 431.51L244.829 432.092L247.743 434.354C247.8 433.856 247.959 433.553 248.531 432.815L250.362 430.457C251.048 429.574 251.261 429.1 251.24 428.502C251.2 427.405 250.174 426.105 247.986 424.406C246.704 423.411 245.648 422.823 244.782 422.616C243.745 422.354 243.078 422.514 242.208 423.234L245.337 425.47ZM246.726 429.398C246.135 430.16 245.5 430.054 244.061 428.937C243.311 428.355 243.08 427.904 243.342 427.565C243.54 427.311 243.898 427.299 244.296 427.511C244.544 427.665 244.853 427.866 245.661 428.474C246.405 429.013 246.405 429.013 246.839 429.253L246.726 429.398Z" fill="white"/>
<path d="M248.794 435.171L251.564 437.321L257.826 429.255L255.057 427.105L248.794 435.171Z" fill="white"/>
<path d="M255.27 440.199L259.092 443.165L262.163 442.43L262.151 445.541L266.178 448.667L266.008 441.771L272.126 440.357L268.269 437.362L265.894 437.999L265.874 435.503L261.883 432.405L262.059 438.569L255.27 440.199Z" fill="white"/>
<path d="M267.202 446.439L271.87 450.063L273.776 447.608L269.108 443.984L267.202 446.439Z" fill="white"/>
<path d="M271.213 452.576L274.296 454.97L280.559 446.904L277.475 444.51L271.213 452.576Z" fill="white"/>
<path d="M275.9 456.216L281.294 460.403C282.926 461.67 283.636 462.105 284.407 462.335C286.183 462.843 287.8 462.159 289.255 460.285C290.607 458.543 290.95 456.852 290.26 455.27C289.847 454.329 289.164 453.586 287.508 452.299L282.163 448.15L275.9 456.216ZM280.58 456.554L283.65 452.6L285.101 453.726C286.057 454.468 286.144 454.555 286.354 454.834C286.963 455.598 286.836 456.585 286.029 457.625C285.493 458.314 284.902 458.727 284.343 458.797C283.828 458.862 283.12 458.526 282.068 457.709L280.58 456.554Z" fill="white"/>
<path d="M137.692 639.636L142.943 644.002C144.532 645.323 145.226 645.781 145.989 646.037C147.748 646.603 149.386 645.974 150.903 644.15C152.313 642.454 152.713 640.776 152.076 639.171C151.694 638.217 151.037 637.451 149.424 636.11L144.221 631.784L137.692 639.636ZM142.358 640.131L145.559 636.281L146.971 637.456C147.901 638.229 147.986 638.319 148.186 638.605C148.769 639.389 148.609 640.371 147.768 641.383C147.21 642.054 146.604 642.447 146.044 642.499C145.526 642.546 144.83 642.186 143.806 641.335L142.358 640.131Z" fill="#1F2630"/>
<path d="M148.806 648.877L151.502 651.118L156.406 645.22L153.71 642.979L148.806 648.877ZM154.17 642.426L156.866 644.667L158.03 643.266L155.335 641.025L154.17 642.426Z" fill="#1F2630"/>
<path d="M166.329 653.471L163.633 651.229L163.104 651.865C162.966 650.834 162.394 649.941 161.217 648.962C158.933 647.063 156.656 647.001 155.168 648.79C154.512 649.579 154.221 650.552 154.402 651.34C154.66 652.37 155.569 653.624 156.876 654.71C157.888 655.552 158.696 655.945 159.629 656.044C159.152 656.523 158.864 656.702 158.509 656.745C158.015 656.812 157.415 656.552 156.744 655.994C156.179 655.525 156.022 655.235 156.031 654.745L152.829 652.082C151.962 653.651 152.656 655.164 155.258 657.327C156.305 658.198 157.475 658.971 158.292 659.353C159.189 659.759 159.796 659.866 160.412 659.701C161.092 659.53 161.621 659.133 162.423 658.168L166.329 653.471ZM160.597 651.672C161.55 652.465 161.832 653.395 161.313 654.019C160.784 654.655 159.796 654.55 158.843 653.757C157.842 652.926 157.563 652.016 158.111 651.357C158.64 650.721 159.596 650.84 160.597 651.672Z" fill="#1F2630"/>
<path d="M162.694 660.424L165.389 662.665L170.293 656.767L167.597 654.526L162.694 660.424ZM168.057 653.972L170.753 656.214L171.918 654.813L169.222 652.571L168.057 653.972Z" fill="#1F2630"/>
<path d="M171.878 665.491L171.69 665.335C171.042 664.796 171.005 664.626 171.455 664.084L173.256 661.918L174.198 662.701L175.519 661.112L174.577 660.329L176.202 658.375L173.506 656.133L171.881 658.088L170.928 657.295L169.606 658.884L170.56 659.677L168.739 661.867C167.78 663.02 167.753 663.077 167.659 663.477C167.515 664.154 167.872 664.729 169.002 665.669L170.615 667.01L171.878 665.491Z" fill="#1F2630"/>
<path d="M178.29 666.184C178.704 666.07 179.178 666.265 179.885 666.852C180.709 667.538 181.099 668.241 180.845 668.547C180.669 668.759 180.453 668.659 179.362 667.792C177.72 666.486 176.188 665.551 175.098 665.162C174.2 664.853 173.424 665.044 172.875 665.704C171.809 666.987 172.43 668.778 174.525 670.52C175.726 671.518 176.648 671.966 177.954 672.216L177.56 672.785L180.398 675.143C180.471 674.647 180.64 674.349 181.237 673.631L183.145 671.336C183.86 670.476 184.089 670.009 184.088 669.412C184.085 668.314 183.103 666.98 180.973 665.208C179.725 664.171 178.689 663.549 177.83 663.313C176.803 663.016 176.131 663.154 175.237 663.845L178.29 666.184ZM179.547 670.156C178.931 670.897 178.299 670.771 176.898 669.606C176.168 668.999 175.952 668.541 176.226 668.211C176.432 667.964 176.791 667.963 177.181 668.188C177.424 668.351 177.726 668.562 178.513 669.196C179.239 669.76 179.239 669.76 179.665 670.014L179.547 670.156Z" fill="#1F2630"/>
<path d="M181.421 675.994L184.117 678.236L190.645 670.384L187.95 668.142L181.421 675.994Z" fill="#1F2630"/>
<path d="M187.725 681.236L191.445 684.329L194.54 683.696L194.424 686.805L198.344 690.065L198.405 683.167L204.566 681.958L200.811 678.836L198.416 679.393L198.48 676.898L194.595 673.668L194.565 679.835L187.725 681.236Z" fill="#1F2630"/>
<path d="M199.442 687.872L203.986 691.65L205.973 689.26L201.429 685.482L199.442 687.872Z" fill="#1F2630"/>
<path d="M203.245 694.14L206.246 696.635L212.775 688.783L209.773 686.287L203.245 694.14Z" fill="#1F2630"/>
<path d="M207.808 697.934L213.058 702.299C214.648 703.621 215.342 704.079 216.105 704.334C217.864 704.901 219.502 704.272 221.019 702.447C222.428 700.752 222.828 699.074 222.192 697.469C221.81 696.515 221.153 695.749 219.54 694.408L214.337 690.082L207.808 697.934ZM212.474 698.428L215.675 694.579L217.087 695.754C218.017 696.527 218.102 696.617 218.302 696.903C218.885 697.686 218.725 698.669 217.884 699.681C217.326 700.352 216.72 700.745 216.16 700.796C215.642 700.844 214.946 700.484 213.922 699.632L212.474 698.428Z" fill="#1F2630"/>
<g filter="url(#filter4_d_802_891)">
<path fill-rule="evenodd" clip-rule="evenodd" d="M614.706 403.695L593.778 391.782L582.444 411.694C578.47 418.675 580.908 427.556 587.889 431.53L608.817 443.443L620.152 423.532C624.126 416.55 621.688 407.669 614.706 403.695ZM593.639 391.273L582.12 411.509C578.044 418.67 580.544 427.779 587.705 431.855L608.957 443.952L620.476 423.716C624.552 416.556 622.051 407.447 614.891 403.371L593.639 391.273Z" fill="white"/>
</g>
<path d="M584.669 415.746L591.608 419.696C593.708 420.891 594.601 421.276 595.532 421.415C597.673 421.706 599.43 420.647 600.803 418.235C602.078 415.995 602.195 413.981 601.133 412.264C600.498 411.243 599.584 410.496 597.453 409.283L590.576 405.369L584.669 415.746ZM590.142 415.359L593.038 410.272L594.905 411.335C596.134 412.034 596.249 412.121 596.539 412.409C597.37 413.191 597.388 414.355 596.626 415.693C596.121 416.58 595.505 417.156 594.87 417.33C594.284 417.491 593.409 417.219 592.055 416.449L590.142 415.359Z" fill="white"/>
<path d="M599.077 423.948L603.993 426.746L607.426 425.384L607.93 428.987L613.11 431.936L611.767 423.982L618.613 421.328L613.65 418.503L611.007 419.636L610.569 416.75L605.435 413.827L606.664 420.933L599.077 423.948Z" fill="white"/>
<defs>
<filter id="filter0_d_802_891" x="0.214844" y="225.106" width="684.419" height="853.72" filterUnits="userSpaceOnUse" color-interpolation-filters="sRGB">
<feFlood flood-opacity="0" result="BackgroundImageFix"/>
<feColorMatrix in="SourceAlpha" type="matrix" values="0 0 0 0 0 0 0 0 0 0 0 0 0 0 0 0 0 0 127 0" result="hardAlpha"/>
<feOffset dy="25"/>
<feGaussianBlur stdDeviation="40"/>
<feComposite in2="hardAlpha" operator="out"/>
<feColorMatrix type="matrix" values="0 0 0 0 0 0 0 0 0 0.0313726 0 0 0 0 0.0784314 0 0 0 0.2 0"/>
<feBlend mode="normal" in2="BackgroundImageFix" result="effect1_dropShadow_802_891"/>
<feBlend mode="normal" in="SourceGraphic" in2="effect1_dropShadow_802_891" result="shape"/>
</filter>
<filter id="filter1_i_802_891" x="177.18" y="438.57" width="68.7189" height="93.1978" filterUnits="userSpaceOnUse" color-interpolation-filters="sRGB">
<feFlood flood-opacity="0" result="BackgroundImageFix"/>
<feBlend mode="normal" in="SourceGraphic" in2="BackgroundImageFix" result="shape"/>
<feColorMatrix in="SourceAlpha" type="matrix" values="0 0 0 0 0 0 0 0 0 0 0 0 0 0 0 0 0 0 127 0" result="hardAlpha"/>
<feOffset dx="-0.772581" dy="-0.772581"/>
<feComposite in2="hardAlpha" operator="arithmetic" k2="-1" k3="1"/>
<feColorMatrix type="matrix" values="0 0 0 0 0 0 0 0 0 0 0 0 0 0 0 0 0 0 0.25 0"/>
<feBlend mode="normal" in2="shape" result="effect1_innerShadow_802_891"/>
</filter>
<filter id="filter2_d_802_891" x="64.7725" y="0" width="684.419" height="853.72" filterUnits="userSpaceOnUse" color-interpolation-filters="sRGB">
<feFlood flood-opacity="0" result="BackgroundImageFix"/>
<feColorMatrix in="SourceAlpha" type="matrix" values="0 0 0 0 0 0 0 0 0 0 0 0 0 0 0 0 0 0 127 0" result="hardAlpha"/>
<feOffset dy="25"/>
<feGaussianBlur stdDeviation="40"/>
<feComposite in2="hardAlpha" operator="out"/>
<feColorMatrix type="matrix" values="0 0 0 0 0 0 0 0 0 0.0313726 0 0 0 0 0.0784314 0 0 0 0.4 0"/>
<feBlend mode="normal" in2="BackgroundImageFix" result="effect1_dropShadow_802_891"/>
<feBlend mode="normal" in="SourceGraphic" in2="effect1_dropShadow_802_891" result="shape"/>
</filter>
<filter id="filter3_i_802_891" x="241.738" y="213.464" width="68.7189" height="93.1978" filterUnits="userSpaceOnUse" color-interpolation-filters="sRGB">
<feFlood flood-opacity="0" result="BackgroundImageFix"/>
<feBlend mode="normal" in="SourceGraphic" in2="BackgroundImageFix" result="shape"/>
<feColorMatrix in="SourceAlpha" type="matrix" values="0 0 0 0 0 0 0 0 0 0 0 0 0 0 0 0 0 0 127 0" result="hardAlpha"/>
<feOffset dx="-0.772581" dy="-0.772581"/>
<feComposite in2="hardAlpha" operator="arithmetic" k2="-1" k3="1"/>
<feColorMatrix type="matrix" values="0 0 0 0 0 0 0 0 0 0 0 0 0 0 0 0 0 0 0.25 0"/>
<feBlend mode="normal" in2="shape" result="effect1_innerShadow_802_891"/>
</filter>
<filter id="filter4_d_802_891" x="530.164" y="345.273" width="142.268" height="152.679" filterUnits="userSpaceOnUse" color-interpolation-filters="sRGB">
<feFlood flood-opacity="0" result="BackgroundImageFix"/>
<feColorMatrix in="SourceAlpha" type="matrix" values="0 0 0 0 0 0 0 0 0 0 0 0 0 0 0 0 0 0 127 0" result="hardAlpha"/>
<feOffset dy="4"/>
<feGaussianBlur stdDeviation="25"/>
<feComposite in2="hardAlpha" operator="out"/>
<feColorMatrix type="matrix" values="0 0 0 0 0.403922 0 0 0 0 0.282353 0 0 0 0 0.847059 0 0 0 0.19 0"/>
<feBlend mode="normal" in2="BackgroundImageFix" result="effect1_dropShadow_802_891"/>
<feBlend mode="normal" in="SourceGraphic" in2="effect1_dropShadow_802_891" result="shape"/>
</filter>
<radialGradient id="paint0_radial_802_891" cx="0" cy="0" r="1" gradientUnits="userSpaceOnUse" gradientTransform="translate(63.8898 270.359) rotate(55.3033) scale(801.246 545.893)">
<stop stop-color="white" stop-opacity="0.3"/>
<stop offset="1" stop-color="white" stop-opacity="0"/>
</radialGradient>
<linearGradient id="paint1_linear_802_891" x1="80.2148" y1="280.106" x2="728.711" y2="560.076" gradientUnits="userSpaceOnUse">
<stop stop-color="#ABABAB"/>
<stop offset="0.3125" stop-color="white"/>
<stop offset="0.630208" stop-color="#BDBDBD"/>
<stop offset="1" stop-color="#5E5E5E"/>
</linearGradient>
<linearGradient id="paint2_linear_802_891" x1="0" y1="0" x2="70.2171" y2="51.8633" gradientUnits="userSpaceOnUse">
<stop stop-color="#ABABAB"/>
<stop offset="0.3125" stop-color="white"/>
<stop offset="0.630208" stop-color="#BDBDBD"/>
<stop offset="1" stop-color="#5E5E5E"/>
</linearGradient>
<linearGradient id="paint3_linear_802_891" x1="190.982" y1="439.402" x2="247.415" y2="517.623" gradientUnits="userSpaceOnUse">
<stop stop-color="#7D7D7D"/>
<stop offset="0.494792" stop-color="white"/>
<stop offset="1" stop-color="#1C1C1C"/>
</linearGradient>
<radialGradient id="paint4_radial_802_891" cx="0" cy="0" r="1" gradientUnits="userSpaceOnUse" gradientTransform="translate(128.447 45.253) rotate(55.3033) scale(801.246 545.894)">
<stop stop-color="white" stop-opacity="0.3"/>
<stop offset="1" stop-color="white" stop-opacity="0"/>
</radialGradient>
<linearGradient id="paint5_linear_802_891" x1="144.772" y1="55" x2="793.269" y2="334.97" gradientUnits="userSpaceOnUse">
<stop stop-color="#ABABAB"/>
<stop offset="0.3125" stop-color="white"/>
<stop offset="0.630208" stop-color="#BDBDBD"/>
<stop offset="1" stop-color="#5E5E5E"/>
</linearGradient>
<linearGradient id="paint6_linear_802_891" x1="0" y1="0" x2="70.2171" y2="51.8633" gradientUnits="userSpaceOnUse">
<stop stop-color="#ABABAB"/>
<stop offset="0.3125" stop-color="white"/>
<stop offset="0.630208" stop-color="#BDBDBD"/>
<stop offset="1" stop-color="#5E5E5E"/>
</linearGradient>
<linearGradient id="paint7_linear_802_891" x1="255.54" y1="214.297" x2="311.972" y2="292.517" gradientUnits="userSpaceOnUse">
<stop stop-color="#7D7D7D"/>
<stop offset="0.494792" stop-color="white"/>
<stop offset="1" stop-color="#1C1C1C"/>
</linearGradient>
</defs>
</svg>
