<svg width="437" height="134" viewBox="0 0 437 134" fill="none" xmlns="http://www.w3.org/2000/svg">
<path d="M1.16 42.7305H29.704C38.344 42.7305 41.8 42.3465 44.936 41.1305C52.104 38.2505 55.688 31.8505 55.688 21.9305C55.688 12.7145 52.488 6.25047 46.152 2.79447C42.376 0.746468 38.216 0.0424652 29.448 0.0424652H1.16V42.7305ZM17.48 31.8505V10.9225H25.16C30.216 10.9225 30.728 10.9865 32.136 11.3705C36.104 12.3305 38.216 15.9145 38.216 21.4185C38.216 25.0665 37.32 27.9465 35.656 29.6105C34.12 31.1465 30.92 31.8505 25.352 31.8505H17.48ZM61.581 42.7305H76.237V10.6665H61.581V42.7305ZM61.581 7.65847H76.237V0.0424652H61.581V7.65847ZM130.184 10.6665H115.528V14.1225C112.328 11.1785 108.104 9.83447 101.704 9.83447C89.2875 9.83447 81.7995 15.7225 81.7995 25.4505C81.7995 29.7385 83.4635 33.6425 86.1515 35.6905C89.7355 38.3145 96.0075 39.9145 103.112 39.9145C108.616 39.9145 112.264 39.0185 115.528 36.8425C115.272 39.6585 114.824 41.0025 113.8 42.0905C112.392 43.6265 109.768 44.3945 106.12 44.3945C103.048 44.3945 101.768 43.8825 100.488 42.2825H83.0795C84.4875 49.6425 90.7595 52.6505 104.904 52.6505C110.6 52.6505 116.424 52.0105 120.072 51.0505C124.04 49.9625 126.28 48.6825 127.816 46.5065C129.544 44.1385 130.184 41.4505 130.184 36.2025V10.6665ZM106.952 20.2025C112.136 20.2025 115.528 22.4425 115.528 25.8345C115.528 29.2905 112.072 31.5945 106.888 31.5945C101.448 31.5945 98.1195 29.4185 98.1195 25.8345C98.1195 22.3785 101.512 20.2025 106.952 20.2025ZM137.081 42.7305H151.737V10.6665H137.081V42.7305ZM137.081 7.65847H151.737V0.0424652H137.081V7.65847ZM180.148 34.4745H179.124C175.604 34.4745 175.028 34.0265 175.028 31.0825V19.3065H180.148V10.6665H175.028V0.0424652H160.372V10.6665H155.188V19.3065H160.372V31.2105C160.372 37.4825 160.436 37.7385 161.204 39.2745C162.548 41.8345 165.236 42.7305 171.38 42.7305H180.148V34.4745ZM202.61 19.5625C203.634 18.0905 205.682 17.4505 209.522 17.4505C214.002 17.4505 217.138 18.6665 217.138 20.3305C217.138 21.4825 216.178 21.7385 210.354 21.8665C201.586 22.0585 194.162 23.1465 189.618 24.8105C185.906 26.2185 183.922 28.9065 183.922 32.4905C183.922 39.4665 190.706 43.5625 202.098 43.5625C208.626 43.5625 212.786 42.5385 217.65 39.8505L217.906 42.7305H233.33C232.242 40.9385 231.986 39.5305 231.986 35.6265V23.1465C231.986 18.4745 231.474 16.3625 229.874 14.4425C226.93 10.9225 220.21 9.25847 208.626 9.25847C201.842 9.25847 196.85 10.0265 193.458 11.5625C189.362 13.3545 187.57 15.5945 186.546 20.2025L202.61 19.5625ZM217.266 28.9705C217.266 33.0025 214.898 34.2825 207.282 34.2825C203.314 34.2825 201.394 33.3865 201.394 31.5945C201.394 30.2505 202.546 29.2905 204.402 28.9705C205.618 28.8425 207.154 28.7145 211.378 28.6505C215.218 28.5225 215.218 28.5225 217.266 28.2025V28.9705ZM238.894 42.7305H253.55V0.0424652H238.894V42.7305ZM273.166 42.7305H293.391L301.647 32.4265L309.583 42.7305H330.895L312.655 20.3945L329.231 0.0424652H308.815L302.607 8.23447L296.143 0.0424652H275.023L291.407 19.9465L273.166 42.7305ZM328.562 32.7465H353.267V19.7545H328.562V32.7465ZM357.538 42.7305H373.858V0.0424652H357.538V42.7305ZM382.348 42.7305H410.892C419.532 42.7305 422.988 42.3465 426.124 41.1305C433.292 38.2505 436.876 31.8505 436.876 21.9305C436.876 12.7145 433.676 6.25047 427.34 2.79447C423.564 0.746468 419.404 0.0424652 410.636 0.0424652H382.348V42.7305ZM398.668 31.8505V10.9225H406.348C411.404 10.9225 411.916 10.9865 413.324 11.3705C417.292 12.3305 419.404 15.9145 419.404 21.4185C419.404 25.0665 418.508 27.9465 416.844 29.6105C415.308 31.1465 412.108 31.8505 406.54 31.8505H398.668ZM23.752 121.05C20.424 121.05 17.3307 120.496 14.472 119.386C11.656 118.234 9.20267 116.634 7.112 114.586C5.02133 112.538 3.4 110.149 2.248 107.418C1.096 104.645 0.52 101.616 0.52 98.3305C0.52 95.0451 1.096 92.0371 2.248 89.3065C3.4 86.5331 5.02133 84.1225 7.112 82.0745C9.24533 80.0265 11.72 78.4478 14.536 77.3385C17.352 76.1865 20.424 75.6105 23.752 75.6105C26.9093 75.6105 29.8533 76.1225 32.584 77.1465C35.3573 78.1705 37.7253 79.7278 39.688 81.8185L37.64 83.9305C35.72 82.0531 33.5867 80.7091 31.24 79.8985C28.936 79.0451 26.4827 78.6185 23.88 78.6185C21.0213 78.6185 18.3547 79.1091 15.88 80.0905C13.448 81.0718 11.3147 82.4585 9.48 84.2505C7.688 86.0425 6.28 88.1331 5.256 90.5225C4.27467 92.9118 3.784 95.5145 3.784 98.3305C3.784 101.146 4.27467 103.749 5.256 106.138C6.28 108.528 7.688 110.618 9.48 112.41C11.3147 114.202 13.448 115.589 15.88 116.57C18.3547 117.552 21.0213 118.042 23.88 118.042C26.4827 118.042 28.936 117.637 31.24 116.826C33.5867 115.973 35.72 114.586 37.64 112.666L39.688 114.778C37.7253 116.869 35.3573 118.448 32.584 119.514C29.8533 120.538 26.9093 121.05 23.752 121.05ZM70.09 120.73V113.114L69.962 111.962V99.4185C69.962 96.3038 69.1087 93.9358 67.402 92.3145C65.738 90.6931 63.2847 89.8825 60.042 89.8825C57.738 89.8825 55.5833 90.2878 53.578 91.0985C51.6153 91.8665 49.93 92.8691 48.522 94.1065L46.922 91.8025C48.586 90.3091 50.5913 89.1571 52.938 88.3465C55.2847 87.4931 57.738 87.0665 60.298 87.0665C64.4367 87.0665 67.6153 88.1118 69.834 90.2025C72.0527 92.2931 73.162 95.4078 73.162 99.5465V120.73H70.09ZM58.058 120.986C55.5833 120.986 53.4287 120.602 51.594 119.834C49.802 119.024 48.4153 117.893 47.434 116.442C46.4953 114.992 46.026 113.328 46.026 111.45C46.026 109.744 46.41 108.208 47.178 106.842C47.9887 105.434 49.3113 104.304 51.146 103.45C52.9807 102.554 55.434 102.106 58.506 102.106H70.794V104.602H58.57C55.114 104.602 52.682 105.242 51.274 106.522C49.9087 107.802 49.226 109.402 49.226 111.322C49.226 113.456 50.0367 115.162 51.658 116.442C53.2793 117.722 55.562 118.362 58.506 118.362C61.322 118.362 63.69 117.722 65.61 116.442C67.5727 115.162 69.0233 113.306 69.962 110.874L70.858 113.05C69.962 115.482 68.426 117.424 66.25 118.874C64.1167 120.282 61.386 120.986 58.058 120.986ZM86.3465 120.73V87.3225H89.4185V96.4745L89.0985 95.4505C90.0372 92.7625 91.6158 90.6931 93.8345 89.2425C96.0532 87.7918 98.8265 87.0665 102.155 87.0665V90.2025C102.027 90.2025 101.899 90.2025 101.771 90.2025C101.643 90.1598 101.515 90.1385 101.387 90.1385C97.6745 90.1385 94.7732 91.3118 92.6825 93.6585C90.5918 95.9625 89.5465 99.1838 89.5465 103.322V120.73H86.3465ZM123.523 120.986C120.408 120.986 117.592 120.282 115.075 118.874C112.6 117.424 110.638 115.418 109.187 112.858C107.736 110.298 107.011 107.354 107.011 104.026C107.011 100.656 107.736 97.7118 109.187 95.1945C110.638 92.6345 112.6 90.6505 115.075 89.2425C117.592 87.7918 120.408 87.0665 123.523 87.0665C126.467 87.0665 129.112 87.7491 131.459 89.1145C133.848 90.4798 135.726 92.4211 137.091 94.9385C138.499 97.4558 139.203 100.485 139.203 104.026C139.203 107.482 138.52 110.49 137.155 113.05C135.79 115.61 133.912 117.573 131.523 118.938C129.176 120.304 126.51 120.986 123.523 120.986ZM123.715 118.106C126.275 118.106 128.558 117.53 130.563 116.378C132.611 115.184 134.211 113.52 135.363 111.386C136.558 109.253 137.155 106.8 137.155 104.026C137.155 101.21 136.558 98.7571 135.363 96.6665C134.211 94.5331 132.611 92.8905 130.563 91.7385C128.558 90.5438 126.275 89.9465 123.715 89.9465C121.155 89.9465 118.851 90.5438 116.803 91.7385C114.798 92.8905 113.198 94.5331 112.003 96.6665C110.851 98.7571 110.275 101.21 110.275 104.026C110.275 106.8 110.851 109.253 112.003 111.386C113.198 113.52 114.798 115.184 116.803 116.378C118.851 117.53 121.155 118.106 123.715 118.106ZM137.219 120.73V109.786L137.795 103.962L137.155 98.1385V73.2425H140.355V120.73H137.219ZM162.295 120.986C159.521 120.986 156.919 120.581 154.487 119.77C152.097 118.96 150.241 117.936 148.919 116.698L150.391 114.138C151.671 115.248 153.377 116.208 155.51 117.018C157.644 117.786 159.948 118.17 162.423 118.17C165.921 118.17 168.439 117.594 169.975 116.442C171.511 115.29 172.279 113.776 172.279 111.898C172.279 110.533 171.873 109.466 171.063 108.698C170.295 107.888 169.249 107.269 167.927 106.842C166.604 106.416 165.153 106.074 163.575 105.818C161.996 105.52 160.417 105.2 158.839 104.858C157.26 104.517 155.809 104.026 154.487 103.386C153.164 102.746 152.097 101.872 151.286 100.762C150.519 99.6105 150.135 98.0958 150.135 96.2185C150.135 94.5118 150.604 92.9758 151.543 91.6105C152.481 90.2451 153.889 89.1571 155.767 88.3465C157.644 87.4931 159.991 87.0665 162.807 87.0665C164.897 87.0665 166.988 87.3651 169.079 87.9625C171.212 88.5598 172.94 89.3491 174.263 90.3305L172.791 92.8905C171.383 91.8238 169.804 91.0558 168.055 90.5865C166.305 90.1171 164.535 89.8825 162.743 89.8825C159.5 89.8825 157.111 90.4798 155.575 91.6745C154.081 92.8691 153.335 94.3625 153.335 96.1545C153.335 97.5625 153.719 98.6931 154.487 99.5465C155.297 100.357 156.364 100.997 157.687 101.466C159.009 101.893 160.46 102.256 162.039 102.554C163.617 102.81 165.196 103.109 166.775 103.45C168.353 103.792 169.804 104.282 171.127 104.922C172.449 105.52 173.495 106.373 174.263 107.482C175.073 108.549 175.479 110 175.479 111.834C175.479 113.669 174.967 115.269 173.943 116.634C172.961 118 171.489 119.066 169.527 119.834C167.564 120.602 165.153 120.986 162.295 120.986ZM201.487 120.73V82.2025C201.487 79.4291 202.276 77.2105 203.855 75.5465C205.476 73.8398 207.78 72.9865 210.767 72.9865C212.004 72.9865 213.22 73.1785 214.415 73.5625C215.609 73.9038 216.591 74.4371 217.359 75.1625L216.079 77.5945C215.439 76.9545 214.671 76.4851 213.775 76.1865C212.879 75.8878 211.919 75.7385 210.895 75.7385C208.847 75.7385 207.289 76.3145 206.223 77.4665C205.156 78.5758 204.623 80.2398 204.623 82.4585V88.0905L204.687 89.6265V120.73H201.487ZM195.343 90.0745V87.3225H215.311V90.0745H195.343ZM234.34 120.986C231.14 120.986 228.281 120.261 225.764 118.81C223.289 117.36 221.305 115.354 219.812 112.794C218.361 110.234 217.636 107.312 217.636 104.026C217.636 100.698 218.361 97.7758 219.812 95.2585C221.305 92.6985 223.289 90.6931 225.764 89.2425C228.281 87.7918 231.14 87.0665 234.34 87.0665C237.54 87.0665 240.399 87.7918 242.916 89.2425C245.433 90.6931 247.417 92.6985 248.868 95.2585C250.319 97.7758 251.044 100.698 251.044 104.026C251.044 107.312 250.319 110.234 248.868 112.794C247.417 115.354 245.433 117.36 242.916 118.81C240.399 120.261 237.54 120.986 234.34 120.986ZM234.34 118.106C236.9 118.106 239.204 117.53 241.252 116.378C243.3 115.184 244.9 113.52 246.052 111.386C247.204 109.253 247.78 106.8 247.78 104.026C247.78 101.21 247.204 98.7571 246.052 96.6665C244.9 94.5331 243.3 92.8905 241.252 91.7385C239.204 90.5438 236.9 89.9465 234.34 89.9465C231.78 89.9465 229.476 90.5438 227.428 91.7385C225.423 92.8905 223.823 94.5331 222.628 96.6665C221.476 98.7571 220.9 101.21 220.9 104.026C220.9 106.8 221.476 109.253 222.628 111.386C223.823 113.52 225.423 115.184 227.428 116.378C229.476 117.53 231.78 118.106 234.34 118.106ZM260.972 120.73V87.3225H264.044V96.4745L263.724 95.4505C264.662 92.7625 266.241 90.6931 268.46 89.2425C270.678 87.7918 273.452 87.0665 276.78 87.0665V90.2025C276.652 90.2025 276.524 90.2025 276.396 90.2025C276.268 90.1598 276.14 90.1385 276.012 90.1385C272.3 90.1385 269.398 91.3118 267.308 93.6585C265.217 95.9625 264.172 99.1838 264.172 103.322V120.73H260.972ZM301.829 133.402C300.293 133.402 298.842 133.146 297.477 132.634C296.154 132.122 295.023 131.376 294.084 130.394L295.684 127.962C296.538 128.858 297.455 129.52 298.437 129.946C299.461 130.373 300.613 130.586 301.893 130.586C303.429 130.586 304.773 130.16 305.925 129.306C307.119 128.453 308.229 126.896 309.253 124.634L311.557 119.514L312.005 118.938L326.149 87.3225H329.413L312.26 125.274C311.365 127.322 310.383 128.922 309.317 130.074C308.293 131.269 307.162 132.122 305.925 132.634C304.687 133.146 303.322 133.402 301.829 133.402ZM311.493 121.562L296.005 87.3225H299.397L313.477 118.746L311.493 121.562ZM348.528 120.986C345.328 120.986 342.469 120.261 339.952 118.81C337.477 117.36 335.493 115.354 334 112.794C332.549 110.234 331.824 107.312 331.824 104.026C331.824 100.698 332.549 97.7758 334 95.2585C335.493 92.6985 337.477 90.6931 339.952 89.2425C342.469 87.7918 345.328 87.0665 348.528 87.0665C351.728 87.0665 354.586 87.7918 357.104 89.2425C359.621 90.6931 361.605 92.6985 363.056 95.2585C364.506 97.7758 365.232 100.698 365.232 104.026C365.232 107.312 364.506 110.234 363.056 112.794C361.605 115.354 359.621 117.36 357.104 118.81C354.586 120.261 351.728 120.986 348.528 120.986ZM348.528 118.106C351.088 118.106 353.392 117.53 355.44 116.378C357.488 115.184 359.088 113.52 360.24 111.386C361.392 109.253 361.968 106.8 361.968 104.026C361.968 101.21 361.392 98.7571 360.24 96.6665C359.088 94.5331 357.488 92.8905 355.44 91.7385C353.392 90.5438 351.088 89.9465 348.528 89.9465C345.968 89.9465 343.664 90.5438 341.616 91.7385C339.61 92.8905 338.01 94.5331 336.816 96.6665C335.664 98.7571 335.088 101.21 335.088 104.026C335.088 106.8 335.664 109.253 336.816 111.386C338.01 113.52 339.61 115.184 341.616 116.378C343.664 117.53 345.968 118.106 348.528 118.106ZM388.727 120.986C385.868 120.986 383.394 120.474 381.303 119.45C379.212 118.384 377.591 116.805 376.439 114.714C375.33 112.581 374.775 109.957 374.775 106.842V87.3225H377.975V106.586C377.975 110.341 378.935 113.2 380.855 115.162C382.775 117.125 385.484 118.106 388.983 118.106C391.5 118.106 393.676 117.573 395.511 116.506C397.346 115.44 398.754 113.946 399.735 112.026C400.716 110.064 401.207 107.76 401.207 105.114V87.3225H404.407V120.73H401.335V111.45L401.783 112.538C400.802 115.141 399.159 117.21 396.855 118.746C394.594 120.24 391.884 120.986 388.727 120.986Z" fill="#000814"/>
</svg>
